# xmcd
#
# Track frame offsets:
#	150
#	18425
#	37917
#	56958
#	77470
#	94922
#	114786
#	131548
#	154550
#	175370
#
# Disc length: 2638 seconds
#
# Revision: 10
# Processed by: cddbd v1.5.2PL0 Copyright (c) Steve Scherf et al.
# Submitted via: Jack! The Knife 20 Magnifico
#
DISCID=710a4c0a
DTITLE=Litfiba - Grande Nazione
DYEAR=2012
DGENRE=Rock
TTITLE0=Fiesta Tosta
TTITLE1=Squalo
TTITLE2=Elettrica
TTITLE3=Tra Te E Me
TTITLE4=Tutti Buoni
TTITLE5=Luna Dark
TTITLE6=Anarcoide
TTITLE7=Grande Nazione
TTITLE8=Brado
TTITLE9=La Mia Valigia
EXTD=Piero Pelù and Ghigo Renzulli
EXTT0=Pelù, Renzulli
EXTT1=Pelù, Renzulli
EXTT2=Pelù, Renzulli
EXTT3=Pelù, Renzulli
EXTT4=Pelù, Renzulli
EXTT5=Pelù, Renzulli
EXTT6=Pelù, Renzulli
EXTT7=Pelù, Renzulli
EXTT8=Pelù, Renzulli
EXTT9=Pelù, Renzulli
PLAYORDER=
